<svg xmlns="http://www.w3.org/2000/svg" width="48" height="48" fill="none"><g clip-path="url(#a)"><path fill="#181B1E" d="M0 0h48v48H0V0Z"/><path fill="#FEFEFE" d="M13.843 12h5.871v3.429h-5.143v7.851l-.857.6v.943l.857.557v7.191h5.143V36h-5.871l-2.7-3.429v-6.857H8.57v-3.428h2.572v-6.857l2.7-3.429Zm20.314 0h-5.871v3.429h5.143v7.851l.857.6v.943l-.857.557v7.191h-5.143V36h5.871l2.7-3.429v-6.857h2.572v-3.428h-2.572v-6.857L34.157 12Z"/><mask id="b" width="10" height="18" x="18.714" y="16.286" fill="#000" maskUnits="userSpaceOnUse"><path fill="#fff" d="M18.714 16.286h10v18h-10z"/><path d="M25.71 17.006h2.509v2.19h-2.143c-.343 0-.593.09-.776.273-.182.182-.25.456-.25.843v1.186h3.01v2.12h-3.01v9.668h-2.6v-9.668h-2.622v-2.12h2.622v-1.254c0-1.003.274-1.801.844-2.371.547-.593 1.368-.867 2.417-.867Z"/></mask><path fill="#fff" d="M25.71 17.006h2.509v2.19h-2.143c-.343 0-.593.09-.776.273-.182.182-.25.456-.25.843v1.186h3.01v2.12h-3.01v9.668h-2.6v-9.668h-2.622v-2.12h2.622v-1.254c0-1.003.274-1.801.844-2.371.547-.593 1.368-.867 2.417-.867Z"/><path fill="#fff" d="M28.219 17.006h.257v-.257h-.257v.258Zm0 2.19v.256h.257v-.257h-.257Zm-2.919.273.182.182-.182-.182Zm-.25 2.03h-.258v.256h.257v-.257Zm3.01 0h.256v-.258h-.257v.257Zm0 2.12v.257h.256v-.258h-.257Zm-3.01 0v-.258h-.258v.258h.257Zm0 9.667v.257h.257v-.257h-.258Zm-2.6 0h-.257v.257h.257v-.257Zm0-9.668h.257v-.257h-.257v.258Zm-2.622 0h-.257v.258h.257v-.258Zm0-2.12v-.257h-.257v.257h.257Zm2.622 0v.257h.257v-.257h-.257Zm.844-3.625.182.182.007-.008-.19-.174Zm2.417-.61h2.508v-.514H25.71v.515Zm2.25-.257v2.19h.515v-2.19h-.514Zm.258 1.932h-2.143v.515h2.143v-.515Zm-2.143 0c-.39 0-.714.106-.957.35l.363.363c.122-.122.3-.198.594-.198v-.515Zm-.957.35c-.257.256-.327.617-.327 1.024h.515c0-.367.067-.553.175-.661l-.363-.364Zm-.327 1.024v1.186h.515v-1.186h-.515Zm.257 1.443h3.01v-.514h-3.01v.514Zm2.753-.257v2.12h.514v-2.12h-.514Zm.257 1.863h-3.01v.515h3.01v-.515Zm-3.267.258v9.667h.515v-9.668h-.515Zm.257 9.41H22.45v.514h2.6v-.514Zm-2.342.257v-9.668h-.514v9.668h.514Zm-.257-9.925h-2.622v.515h2.622v-.515Zm-2.365.258v-2.12h-.514v2.12h.514Zm-.257-1.864h2.622v-.514h-2.622v.514Zm2.88-.257v-1.254h-.515v1.254h.514Zm0-1.254c0-.956.26-1.68.768-2.19l-.364-.363c-.631.632-.919 1.503-.919 2.553h.514Zm.775-2.197c.481-.521 1.22-.783 2.228-.783v-.515c-1.09 0-1.993.285-2.606.95l.378.348Z" mask="url(#b)"/></g><defs><clipPath id="a"><path fill="#fff" d="M0 0h48v48H0z"/></clipPath></defs></svg>