<svg xmlns="http://www.w3.org/2000/svg" width="48" height="48" fill="none"><g clip-path="url(#a)"><path fill="#181B1E" d="M0 0h48v48H0V0Z"/><path fill="#FEFEFE" d="M13.843 12h5.871v3.429h-5.143v7.851l-.857.6v.943l.857.557v7.191h5.143V36h-5.871l-2.7-3.429v-6.857H8.57v-3.428h2.572v-6.857l2.7-3.429Zm20.314 0h-5.871v3.429h5.143v7.851l.857.6v.943l-.857.557v7.191h-5.143V36h5.871l2.7-3.429v-6.857h2.572v-3.428h-2.572v-6.857L34.157 12Z"/><mask id="b" width="11" height="15" x="18.857" y="17.429" fill="#000" maskUnits="userSpaceOnUse"><path fill="#fff" d="M18.857 17.429h11v15h-11z"/><path d="M23.807 17.87c1.152 0 2.07.45 2.754 1.387v-1.134h2.052v8.712c0 2.934-1.458 4.41-4.374 4.41-1.314 0-2.304-.252-2.988-.72-.684-.504-1.116-1.26-1.296-2.304h2.052c.108.522.324.882.666 1.098.324.198.846.306 1.566.306 1.548 0 2.322-.828 2.322-2.484v-1.368c-.684.954-1.602 1.44-2.754 1.44-1.26 0-2.286-.432-3.06-1.26-.792-.846-1.17-1.98-1.17-3.384s.378-2.538 1.17-3.402c.774-.864 1.8-1.296 3.06-1.296Zm.324 1.657c-.774 0-1.368.27-1.8.81-.432.522-.648 1.26-.648 2.232 0 .882.162 1.566.504 2.07.396.594 1.026.9 1.926.9.792 0 1.404-.27 1.836-.774.414-.54.63-1.26.63-2.196 0-.954-.216-1.692-.63-2.232-.432-.54-1.044-.81-1.818-.81Z"/></mask><path fill="#fff" d="M23.807 17.87c1.152 0 2.07.45 2.754 1.387v-1.134h2.052v8.712c0 2.934-1.458 4.41-4.374 4.41-1.314 0-2.304-.252-2.988-.72-.684-.504-1.116-1.26-1.296-2.304h2.052c.108.522.324.882.666 1.098.324.198.846.306 1.566.306 1.548 0 2.322-.828 2.322-2.484v-1.368c-.684.954-1.602 1.44-2.754 1.44-1.26 0-2.286-.432-3.06-1.26-.792-.846-1.17-1.98-1.17-3.384s.378-2.538 1.17-3.402c.774-.864 1.8-1.296 3.06-1.296Zm.324 1.657c-.774 0-1.368.27-1.8.81-.432.522-.648 1.26-.648 2.232 0 .882.162 1.566.504 2.07.396.594 1.026.9 1.926.9.792 0 1.404-.27 1.836-.774.414-.54.63-1.26.63-2.196 0-.954-.216-1.692-.63-2.232-.432-.54-1.044-.81-1.818-.81Z"/><path fill="#fff" d="m26.561 19.257-.207.151.464.636v-.787h-.257Zm0-1.134v-.258h-.257v.258h.257Zm2.052 0h.257v-.258h-.257v.258Zm-7.362 12.402-.152.207.007.005.145-.212Zm-1.296-2.304v-.258h-.305l.052.301.253-.043Zm2.052 0 .252-.052-.043-.206h-.209v.258Zm.666 1.098-.137.217.003.002.134-.22Zm3.888-3.546h.257v-.8l-.466.65.21.15Zm-5.814.18.188-.176-.188.176Zm0-6.786.19.173.002-.002-.192-.171Zm1.584 1.17.198.163.003-.003-.2-.16Zm-.144 4.302.214-.143-.001-.002-.213.145Zm3.762.126.196.167.008-.011-.204-.156Zm0-4.428.204-.157-.003-.004-.2.16Zm-2.142-2.21c1.073 0 1.912.414 2.547 1.281l.415-.303c-.734-1.004-1.73-1.492-2.962-1.492v.515Zm3.011 1.13v-1.134h-.514v1.134h.514Zm-.257-.877h2.052v-.515h-2.052v.515Zm1.795-.257v8.712h.514v-8.712h-.514Zm0 8.712c0 1.427-.355 2.453-1.019 3.124-.664.67-1.68 1.028-3.098 1.028v.515c1.499 0 2.67-.38 3.463-1.181.794-.801 1.168-1.98 1.168-3.486h-.514Zm-4.117 4.152c-1.286 0-2.218-.247-2.843-.675l-.29.425c.743.508 1.791.765 3.133.765v-.515Zm-2.835-.67c-.62-.456-1.024-1.147-1.195-2.14l-.507.087c.188 1.095.648 1.916 1.397 2.468l.305-.414Zm-1.449-1.84h2.052v-.514h-2.052v.515Zm1.8-.204c.117.566.362.998.78 1.263l.276-.435c-.265-.167-.453-.455-.552-.932l-.504.104Zm.784 1.265c.385.235.965.344 1.7.344v-.515c-.704 0-1.169-.107-1.432-.268l-.268.439Zm1.7.344c.818 0 1.478-.22 1.93-.703.448-.48.65-1.175.65-2.038h-.515c0 .792-.186 1.339-.511 1.687-.323.345-.824.54-1.554.54v.514Zm2.58-2.741v-1.368h-.515v1.368h.514Zm-.467-1.518c-.637.89-1.48 1.332-2.545 1.332v.515c1.238 0 2.233-.529 2.963-1.548l-.418-.3Zm-2.545 1.332c-1.195 0-2.15-.407-2.872-1.178l-.376.351c.827.885 1.923 1.342 3.248 1.342v-.515Zm-2.872-1.178c-.737-.787-1.1-1.852-1.1-3.208h-.515c0 1.45.392 2.654 1.24 3.56l.375-.352Zm-1.1-3.208c0-1.356.363-2.423 1.102-3.229l-.38-.347c-.845.922-1.237 2.124-1.237 3.576h.514Zm1.104-3.23c.72-.805 1.674-1.211 2.868-1.211v-.515c-1.325 0-2.424.458-3.251 1.382l.383.343Zm3.192-.07c-.843 0-1.514.299-2 .907l.4.321c.379-.472.895-.713 1.6-.713v-.515Zm-1.998.904c-.483.584-.707 1.389-.707 2.396h.514c0-.937.209-1.609.59-2.069l-.397-.327Zm-.707 2.396c0 .91.166 1.651.548 2.214l.426-.289c-.302-.445-.46-1.071-.46-1.925h-.514Zm.547 2.212c.454.681 1.175 1.015 2.14 1.015v-.515c-.834 0-1.374-.278-1.712-.785l-.428.285Zm2.14 1.015c.856 0 1.544-.295 2.031-.864l-.39-.335c-.377.44-.913.684-1.64.684v.515Zm2.04-.875c.458-.597.683-1.377.683-2.352h-.514c0 .896-.206 1.556-.577 2.04l.408.312Zm.683-2.352c0-.992-.224-1.79-.683-2.389l-.408.313c.37.482.577 1.159.577 2.076h.514Zm-.686-2.393c-.488-.61-1.178-.907-2.019-.907v.515c.708 0 1.241.243 1.617.713l.402-.321Z" mask="url(#b)"/></g><defs><clipPath id="a"><path fill="#fff" d="M0 0h48v48H0z"/></clipPath></defs></svg>